<svg xmlns="http://www.w3.org/2000/svg" fill="none" viewBox="0 0 111 112" height="16" width="16">
<path fill="#353535" d="M55.7698 111.832C52.1234 111.844 48.5107 111.128 45.1402 109.725C41.7696 108.321 38.708 106.259 36.132 103.656L8.59099 75.8985C3.40317 70.65 0.490021 63.5413 0.490021 56.1305C0.490021 48.7196 3.40317 41.6109 8.59099 36.3624L36.132 8.60511C41.3361 3.37303 48.3847 0.435059 55.7329 0.435059C63.0811 0.435059 70.1295 3.37303 75.3336 8.60511L102.856 36.3624C108.044 41.6109 110.957 48.7196 110.957 56.1305C110.957 63.5413 108.044 70.65 102.856 75.8985L75.3707 103.656C72.7979 106.253 69.742 108.312 66.3785 109.715C63.0149 111.118 59.4097 111.837 55.7698 111.832ZM51.8089 87.8824C52.3257 88.4129 52.9422 88.8344 53.6223 89.122C54.3023 89.4097 55.0324 89.5578 55.7698 89.5578C56.5073 89.5578 57.2374 89.4097 57.9175 89.122C58.5975 88.8344 59.2139 88.4129 59.7307 87.8824L87.2532 60.1251C87.7793 59.6039 88.1971 58.9822 88.4823 58.2963C88.7676 57.6105 88.9144 56.8742 88.9144 56.1305C88.9144 55.3867 88.7676 54.6504 88.4823 53.9645C88.1971 53.2787 87.7793 52.657 87.2532 52.1358L59.7307 24.3784C59.2139 23.8479 58.5975 23.4265 57.9175 23.1389C57.2374 22.8512 56.5073 22.7031 55.7698 22.7031C55.0324 22.7031 54.3023 22.8512 53.6223 23.1389C52.9422 23.4265 52.3257 23.8479 51.8089 24.3784L24.268 52.1358C23.7419 52.657 23.3241 53.2787 23.0389 53.9645C22.7537 54.6504 22.6068 55.3867 22.6068 56.1305C22.6068 56.8742 22.7537 57.6105 23.0389 58.2963C23.3241 58.9822 23.7419 59.6039 24.268 60.1251L51.8089 87.8824Z"></path>
</svg>
